HIERARCHY
ROOT hip
{
  OFFSET 0 0 0
  CHANNELS 6 Xposition Yposition Zposition Zrotation Yrotation Xrotation
  JOINT abdomen
  {
    OFFSET 0 20.6881 -0.73152
    CHANNELS 3 Zrotation Xrotation Yrotation
    JOINT chest
    {
      OFFSET 0 11.7043 -0.48768
      CHANNELS 3 Zrotation Xrotation Yrotation
      JOINT neck
      {
        OFFSET 0 22.1894 -2.19456
        CHANNELS 3 Zrotation Xrotation Yrotation
        JOINT head
        {
          OFFSET -0.24384 7.07133 1.2192
          CHANNELS 3 Zrotation Xrotation Yrotation
          JOINT leftEye
          {
            OFFSET 4.14528 8.04674 8.04672
            CHANNELS 3 Zrotation Xrotation Yrotation
            End Site
            {
              OFFSET 1 0 0
            }
          }
          JOINT rightEye
          {
            OFFSET -3.6576 8.04674 8.04672
            CHANNELS 3 Zrotation Xrotation Yrotation
            End Site
            {
              OFFSET 1 0 0
            }
          }
        }
      }
      JOINT rCollar
      {
        OFFSET -2.68224 19.2634 -4.8768
        CHANNELS 3 Zrotation Xrotation Yrotation
        JOINT rShldr
        {
          OFFSET -8.77824 -1.95073 1.46304
          CHANNELS 3 Zrotation Xrotation Yrotation
          JOINT rForeArm
          {
            OFFSET -28.1742 -1.7115 0.48768
            CHANNELS 3 Zrotation Xrotation Yrotation
            JOINT rHand
            {
              OFFSET -22.5879 0.773209 7.07136
              CHANNELS 3 Zrotation Xrotation Yrotation
              JOINT rThumb1
              {
                OFFSET -1.2192 -0.487915 3.41376
                CHANNELS 3 Zrotation Xrotation Yrotation
                JOINT rThumb2
                {
                  OFFSET -3.37035 -0.52449 3.41376
                  CHANNELS 3 Zrotation Xrotation Yrotation
                  End Site
                  {
                    OFFSET -1.78271 -1.18214 1.43049
                  }
                }
              }
              JOINT rIndex1
              {
                OFFSET -7.75947 0.938293 5.60832
                CHANNELS 3 Zrotation Xrotation Yrotation
                JOINT rIndex2
                {
                  OFFSET -2.54057 -0.884171 1.56538
                  CHANNELS 3 Zrotation Xrotation Yrotation
                  End Site
                  {
                    OFFSET -1.62519 -0.234802 1.16502
                  }
                }
              }
              JOINT rMid1
              {
                OFFSET -8.24714 1.18213 3.41376
                CHANNELS 3 Zrotation Xrotation Yrotation
                JOINT rMid2
                {
                  OFFSET -3.10165 -0.590103 1.0647
                  CHANNELS 3 Zrotation Xrotation Yrotation
                  End Site
                  {
                    OFFSET -2.48547 -0.328903 0.83742
                  }
                }
              }
              JOINT rRing1
              {
                OFFSET -8.82822 0.546677 1.51678
                CHANNELS 3 Zrotation Xrotation Yrotation
                JOINT rRing2
                {
                  OFFSET -2.60934 -0.819778 -0.0198488
                  CHANNELS 3 Zrotation Xrotation Yrotation
                  End Site
                  {
                    OFFSET -2.33842 -0.294052 0.168128
                  }
                }
              }
              JOINT rPinky1
              {
                OFFSET -8.27202 -0.0477905 -0.4584
                CHANNELS 3 Zrotation Xrotation Yrotation
                JOINT rPinky2
                {
                  OFFSET -1.82734 -0.647385 -0.700984
                  CHANNELS 3 Zrotation Xrotation Yrotation
                  End Site
                  {
                    OFFSET -1.69225 -0.51767 -0.607171
                  }
                }
              }
            }
          }
        }
      }
      JOINT lCollar
      {
        OFFSET 2.68224 19.2634 -4.8768
        CHANNELS 3 Zrotation Xrotation Yrotation
        JOINT lShldr
        {
          OFFSET 8.77824 -1.95073 1.46304
          CHANNELS 3 Zrotation Xrotation Yrotation
          JOINT lForeArm
          {
            OFFSET 28.1742 -1.7115 0.48768
            CHANNELS 3 Zrotation Xrotation Yrotation
            JOINT lHand
            {
              OFFSET 22.5879 0.773209 7.07136
              CHANNELS 3 Zrotation Xrotation Yrotation
              JOINT lThumb1
              {
                OFFSET 1.2192 -0.487915 3.41376
                CHANNELS 3 Zrotation Xrotation Yrotation
                JOINT lThumb2
                {
                  OFFSET 3.37035 -0.52449 3.41376
                  CHANNELS 3 Zrotation Xrotation Yrotation
                  End Site
                  {
                    OFFSET 1.78271 -1.18214 1.43049
                  }
                }
              }
              JOINT lIndex1
              {
                OFFSET 7.75947 0.938293 5.60832
                CHANNELS 3 Zrotation Xrotation Yrotation
                JOINT lIndex2
                {
                  OFFSET 2.54057 -0.884171 1.56538
                  CHANNELS 3 Zrotation Xrotation Yrotation
                  End Site
                  {
                    OFFSET 1.62519 -0.234802 1.16502
                  }
                }
              }
              JOINT lMid1
              {
                OFFSET 8.24714 1.18213 3.41376
                CHANNELS 3 Zrotation Xrotation Yrotation
                JOINT lMid2
                {
                  OFFSET 3.10165 -0.590103 1.0647
                  CHANNELS 3 Zrotation Xrotation Yrotation
                  End Site
                  {
                    OFFSET 2.48547 -0.328903 0.83742
                  }
                }
              }
              JOINT lRing1
              {
                OFFSET 8.82822 0.546677 1.51678
                CHANNELS 3 Zrotation Xrotation Yrotation
                JOINT lRing2
                {
                  OFFSET 2.60934 -0.819778 -0.0198488
                  CHANNELS 3 Zrotation Xrotation Yrotation
                  End Site
                  {
                    OFFSET 2.33842 -0.294052 0.168128
                  }
                }
              }
              JOINT lPinky1
              {
                OFFSET 8.27202 -0.0477905 -0.4584
                CHANNELS 3 Zrotation Xrotation Yrotation
                JOINT lPinky2
                {
                  OFFSET 1.82734 -0.647385 -0.700984
                  CHANNELS 3 Zrotation Xrotation Yrotation
                  End Site
                  {
                    OFFSET 1.69225 -0.51767 -0.607171
                  }
                }
              }
            }
          }
        }
      }
    }
  }
  JOINT rButtock
  {
    OFFSET -8.77824 4.35084 1.2192
    CHANNELS 3 Zrotation Xrotation Yrotation
    JOINT rThigh
    {
      OFFSET 0 -1.70687 -2.19456
      CHANNELS 3 Zrotation Xrotation Yrotation
      JOINT rShin
      {
        OFFSET 0 -36.8199 0.73152
        CHANNELS 3 Zrotation Xrotation Yrotation
        JOINT rFoot
        {
          OFFSET 0.73152 -45.1104 -5.12064
          CHANNELS 3 Zrotation Xrotation Yrotation
          End Site
          {
            OFFSET -1.1221 -3.69964 12.103
          }
        }
      }
    }
  }
  JOINT lButtock
  {
    OFFSET 8.77824 4.35084 1.2192
    CHANNELS 3 Zrotation Xrotation Yrotation
    JOINT lThigh
    {
      OFFSET 0 -1.70687 -2.19456
      CHANNELS 3 Zrotation Xrotation Yrotation
      JOINT lShin
      {
        OFFSET 0 -36.8199 0.73152
        CHANNELS 3 Zrotation Xrotation Yrotation
        JOINT lFoot
        {
          OFFSET -0.73152 -45.1104 -5.12064
          CHANNELS 3 Zrotation Xrotation Yrotation
          End Site
          {
            OFFSET 1.1221 -3.69964 12.103
          }
        }
      }
    }
  }
}
MOTION
Frames:	6
Frame Time:	0.00833333
0.0 0.0 0.0 0.0 0.0 0.0 0.0 0.0 0.0 0.0 0.0 0.0 0.0 0.0 0.0 0.0 0.0 0.0 0.0 0.0 0.0 0.0 0.0 0.0 0.0 0.0 0.0 0.0 0.0 0.0 0.0 0.0 0.0 0.0 0.0 0.0 0.0 0.0 0.0 0.0 0.0 0.0 0.0 0.0 0.0 0.0 0.0 0.0 0.0 0.0 0.0 0.0 0.0 0.0 0.0 0.0 0.0 0.0 0.0 0.0 0.0 0.0 0.0 0.0 0.0 0.0 0.0 0.0 0.0 0.0 0.0 0.0 0.0 0.0 0.0 0.0 0.0 0.0 0.0 0.0 0.0 0.0 0.0 0.0 0.0 0.0 0.0 0.0 0.0 0.0 0.0 0.0 0.0 0.0 0.0 0.0 0.0 0.0 0.0 0.0 0.0 0.0 0.0 0.0 0.0 0.0 0.0 0.0 0.0 0.0 0.0 0.0 0.0 0.0 0.0 0.0 0.0 0.0 0.0 0.0 0.0 0.0 0.0 0.0 0.0 0.0 0.0 0.0 0.0 0.0 0.0 0.0
-0.11460000000000001 51.0481 -107.95079999999999 -19.186892 -28.026374 11.783001 0.201466 0.01171 93.326441 0.416405 -2.605145 -92.160224 4.138533 23.202069 178.799026 3.033741 26.154453 -174.164347 0.001219 0.0 0.001816 0.001873 -0.0 -0.003466 -0.048509 0.29246 0.064787 14.372163 -13.377636 -11.103211 162.34761 9.024841 116.177376 179.235071 -1.018831 143.637628 -85.829501 38.631662 47.955349 1.649872 -16.91017 25.113464 -19.170855 24.114238 13.381495 -0.214924 12.199412 1.718348 -0.05754 0.167943 0.03155 -4.715022 20.801419 4.252573 -145.119277 0.30991 -179.226117 11.901827 29.60265 -5.639696 11.407121 38.078318 9.691216 -141.676307 -6.414457 -138.165039 0.165108 0.979184 -0.21905 157.718109 -2.582762 -167.746709 -116.142054 66.059172 120.231061 115.940727 77.214527 -97.876577 85.829468 38.631243 -47.955383 94.504893 -6.055598 -67.491773 -24.076031 -42.306413 5.558343 -56.128794 -49.364904 -8.676541 -68.985114 -80.153587 -40.579021 163.744721 -5.56102 -143.239974 0.014495 -1.323207 0.415522 77.323483 78.798344 -90.842624 155.357772 49.79255 149.602575 156.166701 36.963518 146.264917 0.001803 0.000684 0.001803 -2.726187 0.725016 -86.409491 -21.791923 0.268967 -73.174993 -168.361564 29.76614 -141.012464 0.001565 -0.000116 0.000391 10.411117 -26.562727 -87.6527 -40.206441 -6.930676 -94.009756 -162.052602 17.518205 160.549005
-0.1404 51.046800000000005 -107.92379999999999 -19.236654 -28.123654 11.88049 4.847792 1.948036 111.841073 -1.87525 -2.714745 -109.372016 -8.765124 16.274666 -71.236149 24.625727 4.192191 83.61965 0.000153 -0.0 -0.000766 -0.000431 0.0 -0.00228 -83.95108 68.258353 87.085863 60.113061 -28.507371 33.094225 20.241249 -63.702274 86.105242 -10.817307 9.241656 -1.356372 4.654375 -4.638454 -0.530054 40.494182 -71.476044 -19.561234 -2.686793 4.226404 1.584849 -9.898363 25.41229 8.187587 -15.319193 32.80883 11.208274 86.29086 -78.31265 57.43586 -78.572146 -72.04281 -95.867238 -149.561194 -29.50576 -179.330183 -104.235874 -44.889511 -102.39375 -80.651195 -53.147873 -81.139301 82.460918 68.313536 -85.579908 -103.81593 -61.712486 -103.68981 -168.484945 -3.011759 -131.952702 -162.918867 -16.999817 -146.950549 -83.253494 -50.259131 -33.61602 97.016589 38.305138 -59.909988 140.165849 2.327249 -115.878771 -170.497533 -53.337359 -108.584138 -3.775936 -11.559429 1.811928 42.102897 58.552684 -36.095652 145.099206 -1.520657 178.649252 -12.114528 31.791569 5.398568 123.034829 -31.102165 120.853549 80.783241 -52.839821 81.079748 179.991828 75.748553 0.005591 149.751551 78.167782 -92.876127 -29.887949 -11.111873 -97.686305 -146.679763 5.230297 175.971268 179.991828 75.748553 0.005591 -155.996045 26.888248 -10.943435 -13.497308 47.90372 -45.312223 108.79339 36.790572 -38.231888
-0.1687 51.0432 -107.8708 -19.234074 -28.052645 11.910571 8.590486 5.137735 92.126781 -3.480291 -4.064716 -88.489262 -8.569861 25.333832 -104.286102 29.61342 21.816674 118.506257 0.001182 0.0 0.003387 0.000782 -0.0 -0.002255 3.73746 -33.150875 -6.413495 98.945363 48.411804 -80.579435 69.787878 15.519495 116.668482 -56.001216 57.188609 35.220297 -159.653965 2.601119 88.799826 -34.43025 -25.153878 12.306608 -129.577345 16.76161 108.786062 110.990137 -69.594156 59.426226 -89.835562 60.701573 81.262557 -4.840019 21.316422 4.626252 0.000504 -0.060969 -0.018329 -155.410262 -1.111064 171.980656 0.552775 1.455277 0.508838 -147.179351 11.062243 -143.549326 143.115661 39.174399 -147.541125 33.254973 -3.958072 -10.913033 -3.029132 12.30251 54.007197 -134.896879 -50.817883 -126.671533 2.608391 2.554524 -0.458108 -9.658552 -12.330641 5.657637 140.762698 1.380068 -116.228477 73.141374 57.224495 -54.29313 36.036588 51.722963 -29.832418 -3.602058 -0.581272 0.005686 145.119762 0.225927 179.200935 148.08409 -43.198543 170.549711 85.999424 -50.497716 84.371437 155.630759 42.530238 147.73473 179.999914 75.749946 0.0 118.961641 77.898965 143.985706 41.769447 0.770996 107.490854 -152.48407 34.486069 -130.934675 179.999288 75.749946 0.000487 -147.258345 4.409004 -96.326995 -66.180028 2.532421 93.598971 -141.709178 -28.133926 11.379888
-0.202 51.037699999999994 -107.83879999999999 -19.290015 -28.05073 11.937079 13.68233 4.492766 -180.0 -2.398188 2.261459 -175.585952 2.580859 13.296583 22.392054 -3.345422 -23.063389 -1.258779 -0.001659 -0.0 0.004089 0.003253 -0.0 -0.002268 -157.370822 -17.927651 164.690677 -28.499656 -39.258902 39.396632 -108.458918 28.044523 -58.674994 168.339434 -68.450572 144.860763 -18.123748 16.331691 5.308394 71.062286 -67.086929 5.880418 -81.655346 42.619948 68.126146 -160.319287 -3.302281 113.798436 -8.415598 20.880812 5.643975 -179.604459 -48.7228 141.451132 -145.119462 0.226881 -179.198945 10.208298 -0.028826 -9.001746 -98.178452 -47.351803 -96.415164 68.90733 84.687639 -29.797526 9.651907 34.836116 -11.19947 79.257243 24.510071 -98.782027 158.193083 -36.625624 148.034854 3.049352 43.387467 -7.61893 103.19983 36.331616 -60.111433 133.402863 -17.922385 -74.784132 157.329062 -28.217061 -122.490579 4.810148 29.282315 1.260471 -1.280102 -3.803253 0.680516 7.320022 26.194667 -6.028723 145.120421 0.268219 179.211499 -11.581903 58.796253 1.666538 24.990546 -37.658438 24.061685 -4.358399 3.259723 -0.678083 0.005364 -0.000802 0.002682 -12.156988 11.306733 47.693824 35.17976 17.093566 12.278586 -22.110516 28.60629 -88.277264 -179.984076 75.750444 -0.010895 -142.719951 -11.110346 -104.205261 -81.808338 -10.796164 25.271958 34.005478 38.560564 31.177501
-0.2301 51.032900000000005 -107.80380000000001 -19.319162 -28.040681 11.968965 12.60184 6.448635 116.674092 -5.760632 -2.466163 -111.934188 -10.031451 27.685723 -98.138309 35.376076 24.062737 116.690713 0.002755 0.0 0.003801 0.002567 -0.0 -0.00229 -14.149345 43.061199 15.997783 76.698435 28.319926 3.939231 175.572939 19.811685 33.332095 -159.470037 20.319814 135.778719 88.928539 -50.831293 37.599461 -137.678097 17.859788 100.571091 -46.209785 39.651985 36.318667 3.900564 4.297653 -1.838248 -89.834197 60.701699 81.263244 -16.126539 40.094264 13.153332 -145.099827 -1.605016 -178.623657 -79.158857 87.68094 92.60701 -1.148879 -2.914993 -1.063031 38.245915 81.619219 -1.445289 143.260739 38.907561 -147.697281 46.672453 -16.199437 -4.730994 -12.226805 27.242385 64.130899 -135.353233 -49.427501 -130.740053 -177.78321 -19.532088 -88.886067 77.617396 10.818368 -23.762222 46.209543 39.652775 -36.317823 167.244824 -15.442105 -112.095461 158.523292 -0.191831 -142.145377 -5.220993 -5.860934 0.316423 69.01477 72.942 -86.718829 3.071066 -62.296162 18.561281 -44.740725 86.377617 5.374125 160.876486 52.424523 148.259771 0.003774 -0.00058 0.001887 -11.282393 12.470866 -35.288863 -19.993483 31.916733 62.050452 -161.7318 6.99426 59.677404 -0.000339 0.000215 -8.5e-05 101.277893 -53.436612 -80.900081 -94.085247 -64.944323 170.799697 -150.492779 -27.022465 91.809443
